<?xml version="1.0" encoding="UTF-8"?>
<svg xmlns="http://www.w3.org/2000/svg" xmlns:xlink="http://www.w3.org/1999/xlink" viewBox="0 0 64 64" width="64px" height="64px">
<g id="surface153066071">
<path style=" stroke:none;fill-rule:nonzero;fill:rgb(13.333334%,4.313726%,67.058825%);fill-opacity:1;" d="M 54.324219 16.761719 C 56.59375 19.113281 56.890625 22.851562 56.890625 32 C 56.890625 41.148438 56.59375 44.886719 54.324219 47.238281 C 52.054688 49.59375 49.695312 49.777344 32 49.777344 C 14.304688 49.777344 11.945312 49.59375 9.675781 47.238281 C 7.40625 44.886719 7.109375 41.148438 7.109375 32 C 7.109375 22.851562 7.40625 19.113281 9.675781 16.761719 C 11.941406 14.40625 14.304688 14.222656 32 14.222656 C 49.695312 14.222656 52.054688 14.40625 54.324219 16.761719 Z M 27.96875 39.535156 L 40.058594 32.382812 L 27.96875 25.347656 Z M 27.96875 39.535156 "/>
</g>
</svg>
